<svg xmlns="http://www.w3.org/2000/svg" viewBox="0 0 600 300">
  <rect width="600" height="300" fill="#f8f9fa"/>
  <rect x="40" y="40" width="520" height="220" rx="12" fill="#ffffff" stroke="#dee2e6"/>
  <rect x="40" y="40" width="520" height="50" fill="#0d6efd" opacity="0.85"/>
  <text x="60" y="72" font-size="20" font-family="Segoe UI, Arial" fill="#ffffff">Takvim</text>
  <g fill="#6c757d">
    <rect x="60" y="110" width="80" height="60" rx="6"/>
    <rect x="160" y="110" width="80" height="60" rx="6"/>
    <rect x="260" y="110" width="80" height="60" rx="6" fill="#20c997"/>
    <rect x="360" y="110" width="80" height="60" rx="6"/>
    <rect x="460" y="110" width="80" height="60" rx="6"/>
  </g>
  <g fill="#adb5bd">
    <rect x="60" y="190" width="80" height="50" rx="6"/>
    <rect x="160" y="190" width="80" height="50" rx="6" fill="#ffc107"/>
    <rect x="260" y="190" width="80" height="50" rx="6"/>
    <rect x="360" y="190" width="80" height="50" rx="6"/>
    <rect x="460" y="190" width="80" height="50" rx="6"/>
  </g>
</svg>






